{"accessors":[{"bufferView":1,"componentType":5126,"count":3,"max":[50.485107421875,-40.44017028808594,121.79154968261719],"min":[49.4130744934082,-40.52354049682617,120.7980728149414],"type":"VEC3"},{"bufferView":1,"byteOffset":36,"componentType":5126,"count":3,"max":[-0.07335372269153595,0.9933180809020996,0.08909851312637329],"min":[-0.07335372269153595,0.9933180809020996,0.08909851312637329],"type":"VEC3"},{"bufferView":2,"componentType":5126,"count":3,"max":[0.9942702651023865,0.07980344444513321,-0.07112124562263489,1],"min":[0.9942702651023865,0.07980344444513321,-0.07112124562263489,1],"type":"VEC4"},{"bufferView":0,"componentType":5125,"count":3,"max":[2],"min":[0],"type":"SCALAR"},{"bufferView":1,"byteOffset":72,"componentType":5126,"count":2860,"max":[163.52969360351562,73.61400604248047,234.9873504638672],"min":[-64.56298828125,-154.4787139892578,6.744968891143799],"type":"VEC3"},{"bufferView":1,"byteOffset":34392,"componentType":5126,"count":2860,"max":[0.9996904730796814,0.9998335838317871,0.9996760487556458],"min":[-0.9987890720367432,-0.9985328316688538,-0.9997628331184387],"type":"VEC3"},{"bufferView":2,"byteOffset":48,"componentType":5126,"count":2860,"max":[0.9999879598617554,0.9999601244926453,0.7883270382881165,1],"min":[-0.9995967149734497,-0.9993830919265747,-0.8658889532089233,1],"type":"VEC4"},{"bufferView":0,"byteOffset":12,"componentType":5125,"count":15360,"max":[2859],"min":[0],"type":"SCALAR"},{"bufferView":1,"byteOffset":68712,"componentType":5126,"count":5420,"max":[164.26271057128906,74.34746551513672,235.72259521484375],"min":[-65.29640197753906,-155.21212768554688,6.0097198486328125],"type":"VEC3"},{"bufferView":1,"byteOffset":133752,"componentType":5126,"count":5420,"max":[0.9996885657310486,0.9998344779014587,0.9996923804283142],"min":[-0.9987978339195251,-0.9985427856445312,-0.999778687953949],"type":"VEC3"},{"bufferView":2,"byteOffset":45808,"componentType":5126,"count":5420,"max":[0.9999901652336121,0.9999615550041199,0.7943407297134399,1],"min":[-0.9995967745780945,-0.9993812441825867,-0.864509642124176,1],"type":"VEC4"},{"bufferView":0,"byteOffset":61452,"componentType":5125,"count":19968,"max":[5419],"min":[0],"type":"SCALAR"}],"asset":{"extras":{"author":"Jai.Gupta (https://sketchfab.com/Jai.Gupta)","license":"CC-BY-4.0 (http://creativecommons.org/licenses/by/4.0/)","source":"https://sketchfab.com/models/8e4d2af61f1742ce9e43561f9fdba055","title":"Tennis ball"},"generator":"Sketchfab-3.20.8","version":"2.0"},"bufferViews":[{"buffer":0,"byteLength":141324,"byteOffset":0,"name":"floatBufferViews","target":34963},{"buffer":0,"byteLength":198792,"byteOffset":141324,"byteStride":12,"name":"floatBufferViews","target":34962},{"buffer":0,"byteLength":132528,"byteOffset":340116,"byteStride":16,"name":"floatBufferViews","target":34962}],"buffers":[{"byteLength":472644,"uri":"data:application/octet-stream;base64,"}],"materials":[{"doubleSided":true,"emissiveFactor":[0,0,0],"name":"Hair_Mat","pbrMetallicRoughness":{"baseColorFactor":[1,1,1,1],"metallicFactor":0,"roughnessFactor":0.6}},{"doubleSided":true,"emissiveFactor":[0,0,0],"name":"Mat_2","pbrMetallicRoughness":{"baseColorFactor":[1,1,1,1],"metallicFactor":0,"roughnessFactor":0.6}},{"doubleSided":true,"emissiveFactor":[0,0,0],"name":"Mat_3","pbrMetallicRoughness":{"baseColorFactor":[0.485408844,1,0,1],"metallicFactor":0,"roughnessFactor":0.6}}],"meshes":[{"primitives":[{"attributes":{"NORMAL":1,"POSITION":0,"TANGENT":2},"indices":3,"material":0,"mode":4}]},{"primitives":[{"attributes":{"NORMAL":5,"POSITION":4,"TANGENT":6},"indices":7,"material":1,"mode":4}]},{"primitives":[{"attributes":{"NORMAL":9,"POSITION":8,"TANGENT":10},"indices":11,"material":2,"mode":4}]}],"nodes":[{"children":[1],"name":"RootNode (gltf orientation matrix)","rotation":[-0.7071067811865475,0,0,0.7071067811865476]},{"children":[2],"name":"RootNode (model correction matrix)"},{"children":[3,4,5],"name":"tennisball.obj.cleaner.materialmerger.gles"},{"mesh":0,"name":""},{"mesh":1,"name":""},{"mesh":2,"name":""}],"scene":0,"scenes":[{"name":"OSG_Scene","nodes":[0]}]}